<svg width="35" height="36" viewBox="0 0 35 36" fill="none" xmlns="http://www.w3.org/2000/svg">
<path fill-rule="evenodd" clip-rule="evenodd" d="M11.4543 3.3073L11.2174 3.22589L11.2173 3.22588C10.9803 3.14448 10.7434 3.06309 10.5854 3.14449L8.6895 2.5747L10.5064 1.7607C10.9804 1.51649 11.4543 1.35368 11.9283 1.19088L12.1653 1.10948L12.4023 1.19088L13.1132 1.4351C15.4041 2.0863 17.774 1.9235 20.1438 1.0281C20.2623 0.987396 20.3808 0.926341 20.4993 0.865285C20.6178 0.80423 20.7363 0.743175 20.8548 0.702474L21.0918 0.621094H21.3288C21.8817 0.702494 22.3557 0.865295 22.8297 1.0281L24.4886 1.59788L22.0397 2.81889C20.0649 3.6329 18.09 4.1213 16.0361 4.1213C14.0612 4.1213 12.4813 3.7143 11.4543 3.3073ZM5.95392 8.28789L5.95393 8.28789L5.954 8.28787C6.05183 8.25533 6.14781 8.2234 6.24075 8.19148C8.37363 7.62168 10.6645 7.70308 12.9554 8.59848C14.4563 9.16828 15.9572 9.41249 17.6161 9.41249C20.9339 9.41249 24.2517 8.19148 27.3325 5.83087L28.5174 4.85405L28.9124 4.52846L28.2015 3.95864C27.9645 3.71444 27.6485 3.47025 27.3325 3.30745L26.8585 2.98185L26.4636 3.30745C26.3846 3.34815 26.3253 3.4092 26.2661 3.47025C26.2068 3.5313 26.1476 3.59235 26.0686 3.63305C21.8818 6.88907 17.6951 7.78448 13.7453 6.23787C10.9015 5.17967 8.05763 4.93546 5.2138 5.83087C4.97681 5.91227 4.73982 5.99366 4.42384 6.07506L4.26587 6.15647L4.02886 6.40066C4.02886 6.45097 3.99869 6.47019 3.95699 6.49675C3.93123 6.51316 3.90106 6.53238 3.87089 6.56347C3.7129 6.80767 3.53515 7.03152 3.35741 7.25538C3.17967 7.47923 3.00192 7.70309 2.84393 7.94729L1.34303 10.3079L3.79189 9.00548C4.10478 9.00548 4.36809 8.90332 4.58184 8.82039C4.63791 8.79864 4.69057 8.77821 4.73982 8.76129C5.12082 8.56499 5.55289 8.42128 5.95392 8.28789ZM7.97854 13.4824C5.76667 14.1336 3.7128 15.3546 1.89591 17.3082C1.73395 17.4195 1.60888 17.5687 1.4955 17.7041C1.44297 17.7667 1.39295 17.8264 1.34293 17.878L0 19.3432L0.0790003 17.3082C0.119907 17.0553 0.139633 16.7805 0.160115 16.4953C0.179186 16.2297 0.198912 15.9549 0.237001 15.6802V15.436L0.394977 15.2732L0.789954 14.8662L2.44886 13.4824C4.02877 12.4242 5.60869 11.6102 7.26759 11.1218C9.87444 10.3892 12.7183 10.552 15.4831 11.6102C21.3288 13.8894 26.4635 10.5519 29.7813 7.29592L30.0973 6.97033L30.6502 6.40051L31.1242 7.05173C31.2135 7.17434 31.2915 7.29694 31.3668 7.4152C31.4914 7.611 31.6084 7.79489 31.7562 7.94714L32.0722 8.43553L31.6772 8.76115L30.6502 9.81934C27.9644 12.18 21.8027 16.5756 14.6932 13.8894C12.4023 12.994 10.1114 12.9126 7.97854 13.4824ZM9.55849 18.7737C11.6914 18.2039 13.9822 18.2853 16.2731 19.1807C18.801 20.1576 25.2786 21.5414 32.5462 14.7851L33.7311 13.5641L33.8101 13.4827L34.1261 13.1571L33.9681 12.7501C33.8891 12.4245 33.7311 12.0175 33.5731 11.6105L33.1781 10.4709L32.3882 11.2849C32.3372 11.39 32.2532 11.4612 32.1576 11.5423L32.1576 11.5423C32.1051 11.5868 32.0491 11.6342 31.9932 11.6919C28.5174 15.3549 23.1457 19.0994 16.9841 16.8201C14.2192 15.7619 11.3754 15.5991 8.76854 16.3317C6.24068 17.0643 4.02881 18.4481 1.97492 20.4018V20.3203L0.789993 21.6228C0.789993 21.6731 0.759821 21.6923 0.718122 21.7189C0.692355 21.7353 0.662187 21.7545 0.632016 21.7856L0.395016 22.0298L0.474016 22.3554C0.513514 22.5589 0.572759 22.7624 0.632004 22.9659C0.691249 23.1694 0.750495 23.3729 0.789993 23.5764L1.26397 24.8788L2.05392 23.8206C2.09342 23.7392 2.15267 23.6781 2.21191 23.6171C2.27116 23.556 2.3304 23.495 2.3699 23.4136L2.50719 23.2855C4.1546 21.7479 6.4081 19.6447 9.55849 18.7737ZM20.3809 27.5649C17.616 26.5067 14.7722 26.3439 12.1653 27.0765C10.3485 27.5649 8.61055 28.5417 7.03065 29.7627L5.92469 30.7396L5.60871 31.0651L6.31967 31.7163C6.36849 31.7163 6.38714 31.7474 6.41292 31.7904C6.42885 31.817 6.4475 31.8481 6.47767 31.8792C6.59332 31.9983 6.70897 32.0739 6.85561 32.1697L6.85566 32.1697L6.85571 32.1697C6.90937 32.2048 6.96717 32.2426 7.03065 32.2862L7.5046 32.6118L7.97858 32.2048C8.05757 32.1234 8.21556 31.9606 8.37355 31.8792C9.79547 30.6581 11.3754 29.8441 13.0343 29.4371C15.1672 28.8673 17.458 28.9487 19.7489 29.8441C21.6448 30.5767 25.5156 31.4722 30.1763 29.4371L30.3343 29.3557L30.5713 29.1115C30.5713 29.0612 30.6015 29.042 30.6432 29.0155C30.6689 28.999 30.6991 28.9798 30.7293 28.9487C31.1243 28.4603 31.5192 27.9719 31.8352 27.4021L33.4151 24.8787L30.8873 26.3439C27.1745 28.4603 23.7777 28.8673 20.3809 27.5649ZM22.6717 33.1002C22.5532 33.0594 22.4545 33.0187 22.3557 32.978C22.257 32.9373 22.1583 32.8966 22.0398 32.8559C19.2749 31.7977 16.4311 31.6349 13.8242 32.3676L13.8241 32.3676C13.2712 32.5304 12.7183 32.6932 12.1653 32.9373L10.2694 33.8327L9.79548 34.0769L11.3754 34.6468L12.7973 35.1352L13.0343 35.2166L13.2713 35.1352C13.3503 35.108 13.4293 35.0718 13.5083 35.0357C13.6663 34.9633 13.8242 34.8909 13.9822 34.8909C14.1402 34.8909 14.2982 34.8096 14.4562 34.7282C16.3521 34.2398 18.406 34.2397 20.6178 34.9724C20.7363 35.0131 20.8351 35.0537 20.9338 35.0944L20.9338 35.0945L20.9339 35.0945C21.0326 35.1352 21.1313 35.1759 21.2498 35.2166L21.6448 35.3794L21.8818 35.2979C21.9659 35.2732 22.0519 35.2484 22.1388 35.2234C22.6234 35.0837 23.1388 34.9352 23.5407 34.7282L25.7525 33.9142L23.4617 33.3443C23.3432 33.3036 23.205 33.263 23.0667 33.2223C22.9285 33.1816 22.7902 33.1409 22.6717 33.1002ZM33.573 17.4713L34.758 16.2503L34.679 18.1225C34.679 18.3667 34.6592 18.6313 34.6395 18.8958C34.6197 19.1604 34.6 19.4249 34.6 19.6691V19.9133L34.363 20.1575C34.284 20.2389 34.205 20.3 34.126 20.361C34.047 20.4221 33.968 20.4831 33.889 20.5645C31.2032 22.9252 27.5694 25.0416 23.9356 25.4486C21.8817 25.6928 19.8278 25.4486 17.853 24.716C15.5621 23.8205 13.2712 23.7391 11.1383 24.3089C8.76848 24.9602 6.7146 26.2626 4.81871 28.379L4.50273 28.7046L3.94976 29.4372L3.4758 28.7046C3.31781 28.379 3.15981 28.1348 2.92283 27.8092L2.60685 27.3208L2.92283 26.9138L3.94976 25.7742C5.92464 23.8206 8.13653 22.5182 10.5854 21.7856C13.1922 21.0529 16.0361 21.2157 18.8009 22.2739C24.6466 24.5532 29.8603 21.1343 33.0991 17.9597L33.573 17.4713Z" fill="white"/>
</svg>
