<svg width="129" height="40" viewBox="0 0 129 40" fill="none" xmlns="http://www.w3.org/2000/svg">
<g clip-path="url(#clip0_172_3567)">
<path d="M32.6385 14.0798C32.0774 12.7968 31.3348 11.6011 30.4334 10.5295C29.101 8.89801 27.4382 7.56726 25.5544 6.62479C23.6706 5.68232 21.6085 5.1495 19.504 5.0614C17.3995 4.97329 15.3002 5.33189 13.3442 6.11362C11.3883 6.89534 9.62005 8.08245 8.15592 9.59682C6.69179 11.1112 5.56495 12.9185 4.84957 14.8997C4.13419 16.881 3.84649 18.9913 4.00541 21.0917C4.16434 23.1922 4.76626 25.2352 5.77159 27.0862C6.77692 28.9373 8.16286 30.5545 9.83818 31.8313C10.9131 32.6669 12.101 33.3462 13.3663 33.849C15.1402 34.576 17.0389 34.9505 18.9561 34.9516C22.9135 34.9428 26.706 33.3653 29.5023 30.5647C32.2986 27.7642 33.8704 23.9692 33.8733 20.0116C33.8762 17.9702 33.4558 15.9504 32.6385 14.0798ZM18.9451 8.09275C20.6668 8.09257 22.3676 8.46888 23.9285 9.19532C23.5479 9.3598 23.1477 9.47467 22.7378 9.53713C21.3889 9.73239 20.1394 10.3586 19.1757 11.3224C18.212 12.2861 17.5857 13.5357 17.3905 14.8846C17.3048 15.6411 16.9607 16.3449 16.4164 16.8772C15.8721 17.4095 15.1608 17.7377 14.4026 17.8065C13.0538 18.0017 11.8043 18.628 10.8406 19.5918C9.87685 20.5555 9.25063 21.8051 9.05538 23.154C8.98927 23.8733 8.68238 24.5493 8.18438 25.0725C7.32512 23.2568 6.93913 21.2532 7.0623 19.2483C7.18548 17.2434 7.81382 15.3022 8.88886 13.6053C9.9639 11.9085 11.4507 10.5113 13.2109 9.54357C14.9711 8.57587 16.9475 8.06921 18.9561 8.0707L18.9451 8.09275ZM9.82715 27.7297C9.95945 27.6084 10.0918 27.4981 10.2241 27.3658C11.2049 26.4148 11.8345 25.1595 12.0102 23.8045C12.0814 23.0428 12.4214 22.3314 12.9693 21.7978C13.4967 21.2489 14.2064 20.9117 14.9649 20.8496C16.3138 20.6543 17.5633 20.0281 18.527 19.0643C19.4907 18.1005 20.1169 16.851 20.3122 15.5021C20.3599 14.7055 20.7017 13.9549 21.2714 13.3962C21.8117 12.8579 22.5282 12.5329 23.289 12.481C24.5282 12.3105 25.6838 11.7596 26.5966 10.9043C27.636 11.7666 28.5164 12.804 29.1986 13.9695C29.1567 14.0261 29.1086 14.0779 29.0553 14.1239C28.529 14.6776 27.8202 15.0222 27.0597 15.0941C25.7094 15.286 24.458 15.9111 23.4937 16.8755C22.5294 17.8399 21.9042 19.0913 21.7124 20.4416C21.6347 21.2006 21.297 21.9095 20.7565 22.448C20.2159 22.9866 19.5059 23.3217 18.7466 23.3965C17.3938 23.5903 16.1397 24.2153 15.1703 25.1786C14.2011 26.1421 13.5684 27.3924 13.3663 28.744C13.3069 29.2829 13.1218 29.8003 12.826 30.2546C11.6948 29.5829 10.6817 28.7299 9.82715 27.7297ZM18.9451 31.9856C17.8263 31.9868 16.7129 31.8309 15.6375 31.5225C16.0054 30.8367 16.2445 30.0893 16.3431 29.3174C16.4204 28.56 16.7565 27.8525 17.2948 27.3142C17.833 26.7759 18.5405 26.4398 19.2979 26.3625C20.6487 26.1694 21.9007 25.5441 22.8666 24.5802C23.8325 23.6163 24.4604 22.3654 24.6562 21.015C24.7334 20.2576 25.0696 19.5501 25.6079 19.0118C26.1461 18.4735 26.8536 18.1374 27.6109 18.0601C28.6275 17.9279 29.5964 17.5493 30.4334 16.9575C30.8982 18.7193 30.9533 20.5641 30.5944 22.3505C30.2355 24.1369 29.4721 25.8175 28.363 27.2631C27.2538 28.7085 25.8284 29.8809 24.1957 30.69C22.5632 31.4991 20.7671 31.9234 18.9451 31.9305V31.9856Z" fill="#9D9FA2"/>
<path d="M116.664 11.4004V28.6205H113.107V11.4004H116.664ZM124.099 21.7885H116.664V18.2324L124.099 18.2109V21.7885ZM125.5 14.9565H116.664V11.4004H125.5V14.9565ZM125.5 28.6205H116.664V25.0644L125.5 25.0429V28.6205Z" fill="#9D9FA2"/>
<path d="M105.448 11.3789V28.6206H101.892V11.3789H105.448ZM110.944 14.935H96.3965V11.4005L110.944 11.3789V14.935Z" fill="#9D9FA2"/>
<path d="M88.9187 11.3789L81.5048 28.6206H77.4961L84.91 11.3789H88.9187ZM88.9403 11.3789L96.3973 28.6206H92.3886L84.9316 11.3789H88.9403ZM91.9576 25.4309H81.7203V21.767L91.9576 21.7455V25.4309Z" fill="#9D9FA2"/>
<path d="M59.584 11.3789H66.8686C69.2681 11.3789 71.2796 11.7668 72.9032 12.5427C74.5268 13.3186 75.3386 14.8344 75.3386 17.0902C75.3386 18.4265 74.9075 19.4825 74.0455 20.2584C73.1977 21.0199 72.1417 21.5515 70.8773 21.8532C69.6273 22.1406 68.291 22.2843 66.8686 22.2843H63.2263V28.5991V28.6206H59.584V11.3789ZM67.6445 21.0774H71.7178L74.9722 28.6206H70.8989L67.6445 21.0774ZM66.8686 18.8144C68.0037 18.8144 68.873 18.7569 69.4764 18.642C70.0942 18.5127 70.5253 18.3115 70.7695 18.0385C71.0138 17.7655 71.1359 17.3991 71.1359 16.9394C71.1359 16.4796 71.0138 16.1132 70.7695 15.8402C70.5253 15.5672 70.0942 15.366 69.4764 15.2367C68.873 15.1074 68.0037 15.0428 66.8686 15.0428H63.2263V18.8144H66.8686Z" fill="#9D9FA2"/>
<path d="M57.4207 11.3789L45.8472 26.293L45.6748 21.336L53.0888 11.3789H57.4207ZM46.4291 11.3789V28.6206H42.873V11.3789H46.4291ZM47.5068 21.1636L49.7482 18.6851L57.4207 28.6206H53.0888L47.5068 21.1636Z" fill="#9D9FA2"/>
</g>
<defs>
<clipPath id="clip0_172_3567">
<rect width="127.537" height="40" fill="white" transform="translate(0.962891)"/>
</clipPath>
</defs>
</svg>
