<svg width="132" height="40" viewBox="0 0 132 40" fill="none" xmlns="http://www.w3.org/2000/svg">
<g clip-path="url(#clip0_172_3576)">
<path d="M22.7778 18.4319C22.413 18.7989 22.1336 19.2418 21.9595 19.7291C21.7855 20.2164 21.7211 20.7361 21.7708 21.2511L21.7535 21.2338C21.8047 21.8401 21.7229 22.4502 21.5139 23.0216C21.3049 23.593 20.9737 24.1119 20.5435 24.5421C20.1131 24.9723 19.5941 25.3035 19.0226 25.5124C18.4511 25.7213 17.8408 25.8031 17.2345 25.7519L17.2519 25.7693C16.5265 25.7018 15.7981 25.8595 15.1657 26.2212C14.5333 26.5828 14.0279 27.1306 13.7184 27.7899C13.4089 28.4492 13.3102 29.1879 13.4359 29.9054C13.5618 30.6228 13.9058 31.2839 14.4211 31.7987C14.9364 32.3134 15.598 32.6568 16.3156 32.7818C17.0333 32.9069 17.772 32.8076 18.4312 32.4976C19.0903 32.1874 19.6377 31.6817 19.9989 31.0492C20.36 30.4166 20.5172 29.6881 20.449 28.963L20.4673 28.9803C20.4161 28.3741 20.4978 27.7639 20.7068 27.1925C20.9158 26.6211 21.2471 26.1022 21.6773 25.672C22.1077 25.2418 22.6267 24.9106 23.1981 24.7017C23.7697 24.4927 24.3799 24.4109 24.9863 24.4621L24.968 24.4448C25.5605 24.498 26.1569 24.4009 26.7018 24.1624C27.2467 23.9239 27.7227 23.5517 28.0855 23.0803C28.4482 22.609 28.6862 22.0536 28.7771 21.4659C28.868 20.878 28.8091 20.2768 28.6058 19.7178C28.4025 19.1589 28.0613 18.6603 27.6139 18.2682C27.1665 17.8762 26.6274 17.6034 26.0465 17.4752C25.4656 17.347 24.8617 17.3674 24.2908 17.5346C23.7199 17.7019 23.2006 18.0105 22.7807 18.4319H22.7778Z" fill="#9D9FA2"/>
<path d="M15.6738 23.4973L15.6555 23.4799C16.1708 23.5318 16.6913 23.4686 17.1793 23.2947C17.6672 23.1209 18.1104 22.8409 18.4768 22.4749C18.8431 22.1088 19.1237 21.6658 19.2978 21.1781C19.4721 20.6904 19.5357 20.1702 19.4842 19.6548L19.5025 19.6721C19.4513 19.0658 19.5331 18.4558 19.742 17.8843C19.951 17.313 20.2823 16.7941 20.7125 16.3638C21.1429 15.9337 21.6619 15.6025 22.2333 15.3936C22.8049 15.1846 23.4151 15.1028 24.0215 15.154L24.0032 15.1367C24.7286 15.2048 25.4573 15.0475 26.09 14.6863C26.7228 14.3251 27.2286 13.7776 27.5386 13.1183C27.8485 12.4591 27.9476 11.7204 27.8223 11.0028C27.6969 10.2852 27.3532 9.62377 26.838 9.10868C26.3228 8.5936 25.6613 8.24993 24.9436 8.12459C24.2259 7.99924 23.487 8.09829 22.8276 8.40825C22.1683 8.7182 21.6207 9.22396 21.2594 9.85655C20.8981 10.4891 20.7407 11.2177 20.8089 11.943L20.7916 11.9247C20.8429 12.531 20.7612 13.1412 20.5523 13.7127C20.3434 14.2841 20.0122 14.8031 19.5819 15.2334C19.1516 15.6636 18.6325 15.9948 18.0609 16.2037C17.4893 16.4125 16.879 16.4941 16.2726 16.4428L16.2899 16.4611C15.7746 16.4092 15.254 16.4725 14.7661 16.6463C14.2782 16.8201 13.835 17.1002 13.4686 17.4662C13.1022 17.8323 12.8218 18.2752 12.6475 18.7629C12.4733 19.2507 12.4097 19.7709 12.4612 20.2862L12.4439 20.2689C12.4949 20.8751 12.413 21.4852 12.204 22.0565C11.9949 22.6278 11.6637 23.1467 11.2335 23.5769C10.8032 24.007 10.2843 24.3381 9.71283 24.5472C9.1414 24.7562 8.53124 24.8381 7.92492 24.7871L7.94224 24.8044C7.21686 24.7362 6.48811 24.8935 5.85541 25.2548C5.22272 25.616 4.71686 26.1635 4.40685 26.8227C4.09684 27.482 3.99776 28.2207 4.12313 28.9383C4.24851 29.6559 4.59223 30.3173 5.10741 30.8324C5.6226 31.3475 6.28415 31.6911 7.00187 31.8165C7.71958 31.9418 8.45849 31.8427 9.11782 31.5328C9.77715 31.2229 10.3248 30.7171 10.6861 30.0846C11.0474 29.4519 11.2047 28.7234 11.1365 27.9981L11.1548 28.0154C11.1036 27.4091 11.1854 26.799 11.3944 26.2276C11.6033 25.6562 11.9346 25.1373 12.3649 24.7071C12.7952 24.2769 13.3142 23.9457 13.8856 23.7368C14.4572 23.5279 15.0674 23.4461 15.6738 23.4973Z" fill="#9D9FA2"/>
<path d="M9.22361 21.566C9.5885 21.1991 9.86786 20.7561 10.0418 20.2688C10.2157 19.7815 10.2798 19.2617 10.2296 18.7467L10.2479 18.7641C10.1967 18.1577 10.2785 17.5473 10.4876 16.9758C10.6967 16.4042 11.0281 15.8852 11.4586 15.455C11.8892 15.0247 12.4084 14.6936 12.9801 14.4848C13.5519 14.276 14.1623 14.1944 14.7688 14.2459L14.7505 14.2286C15.4757 14.2965 16.2041 14.1391 16.8366 13.778C17.469 13.4168 17.9745 12.8694 18.2844 12.2104C18.5942 11.5514 18.6931 10.8129 18.5678 10.0955C18.4425 9.37823 18.0988 8.71705 17.5838 8.20215C17.0689 7.68725 16.4075 7.3437 15.6901 7.21836C14.9726 7.09301 14.234 7.19198 13.5749 7.50174C12.9157 7.8115 12.3682 8.317 12.007 8.94929C11.6457 9.58158 11.4883 10.3099 11.5563 11.0349L11.5389 11.0176C11.5902 11.6238 11.5083 12.2339 11.2993 12.8053C11.0903 13.3767 10.7592 13.8957 10.3289 14.3259C9.89858 14.7561 9.37956 15.0872 8.80806 15.2961C8.23655 15.5051 7.62633 15.5869 7.01996 15.5357L7.03729 15.553C6.44481 15.4999 5.8485 15.5972 5.30362 15.8358C4.75874 16.0744 4.28292 16.4467 3.92026 16.9182C3.55759 17.3896 3.31982 17.9449 3.22896 18.5327C3.13811 19.1205 3.19712 19.7217 3.40051 20.2805C3.6039 20.8395 3.94512 21.338 4.39252 21.7299C4.83992 22.122 5.37904 22.3946 5.95992 22.5228C6.54079 22.651 7.14463 22.6305 7.71549 22.4633C8.28634 22.296 8.80573 21.9874 9.22553 21.566H9.22361Z" fill="#9D9FA2"/>
<path d="M126.577 13.0855C126.196 13.0855 125.88 13.0576 125.629 13.0019C125.387 12.9461 125.187 12.8485 125.029 12.7091C124.881 12.5697 124.774 12.3792 124.709 12.1376C124.653 11.8959 124.625 11.5846 124.625 11.2036C124.625 10.8225 124.653 10.5112 124.709 10.2696C124.774 10.0186 124.881 9.81882 125.029 9.67012C125.187 9.52142 125.387 9.41919 125.629 9.36343C125.88 9.30767 126.196 9.27979 126.577 9.27979C126.958 9.27979 127.269 9.30767 127.511 9.36343C127.762 9.41919 127.961 9.52142 128.11 9.67012C128.259 9.81882 128.361 10.0186 128.417 10.2696C128.473 10.5112 128.5 10.8225 128.5 11.2036C128.5 11.5846 128.473 11.8959 128.417 12.1376C128.361 12.3792 128.259 12.5697 128.11 12.7091C127.961 12.8485 127.762 12.9461 127.511 13.0019C127.269 13.0576 126.958 13.0855 126.577 13.0855ZM124.918 15.5809H128.236V30.288H124.918V15.5809Z" fill="#9D9FA2"/>
<path d="M107.297 15.5811H110.601V25.6042C110.601 25.9946 110.624 26.3245 110.67 26.594C110.726 26.8635 110.838 27.0866 111.005 27.2631C111.172 27.4304 111.414 27.5559 111.73 27.6395C112.046 27.7139 112.469 27.751 112.999 27.751C113.556 27.751 114.063 27.7232 114.518 27.6674C114.973 27.6024 115.364 27.5327 115.689 27.4583C116.07 27.3654 116.414 27.2631 116.721 27.1516V15.5811H120.024V30.2882H117.599L117.209 29.2009C116.688 29.489 116.126 29.7445 115.522 29.9676C115.001 30.1535 114.397 30.3254 113.709 30.4834C113.031 30.6414 112.311 30.7204 111.549 30.7204C110.108 30.7204 109.039 30.3393 108.342 29.5772C107.645 28.8059 107.297 27.607 107.297 25.9806V15.5811Z" fill="#9D9FA2"/>
<path d="M92.1582 27.4581C92.5671 27.551 93.0225 27.6346 93.5244 27.709C93.9519 27.774 94.4537 27.8298 95.0299 27.8763C95.6154 27.9227 96.2567 27.946 96.9537 27.946C97.7158 27.946 98.3199 27.9181 98.766 27.8623C99.2121 27.8066 99.5466 27.7136 99.7697 27.5835C100.002 27.4441 100.151 27.2582 100.216 27.0259C100.281 26.7936 100.313 26.5008 100.313 26.1477C100.313 25.9618 100.299 25.7945 100.272 25.6458C100.253 25.4878 100.197 25.3484 100.104 25.2276C100.021 25.0975 99.8905 24.9906 99.7139 24.907C99.5466 24.814 99.3189 24.7443 99.0308 24.6979L95.95 24.1263C95.2437 24.0055 94.6489 23.8428 94.1656 23.6384C93.6824 23.4339 93.292 23.1644 92.9946 22.8298C92.7065 22.486 92.4974 22.0678 92.3673 21.5752C92.2465 21.0733 92.1861 20.4646 92.1861 19.749C92.1861 18.2063 92.6972 17.0585 93.7195 16.3057C94.7511 15.5436 96.2195 15.1626 98.1247 15.1626C98.7939 15.1626 99.4072 15.2044 99.9648 15.2881C100.532 15.3624 101.024 15.4507 101.443 15.5529C101.926 15.6645 102.367 15.7899 102.767 15.9293V18.2992C102.321 18.2248 101.856 18.1598 101.373 18.104C100.955 18.0576 100.485 18.0111 99.9648 17.9646C99.4537 17.9182 98.9333 17.8949 98.4035 17.8949C97.7994 17.8949 97.2976 17.9228 96.8979 17.9786C96.4983 18.025 96.1823 18.1087 95.95 18.2295C95.7177 18.3503 95.555 18.5083 95.4621 18.7035C95.3691 18.8893 95.3227 19.1263 95.3227 19.4144C95.3227 19.6375 95.3413 19.8373 95.3784 20.0139C95.4156 20.1904 95.4946 20.3484 95.6154 20.4878C95.7362 20.6272 95.9035 20.7481 96.1173 20.8503C96.331 20.9525 96.6191 21.0362 96.9816 21.1012L100.174 21.7007C100.797 21.8215 101.322 21.9795 101.749 22.1746C102.186 22.3698 102.539 22.6347 102.809 22.9692C103.078 23.3038 103.273 23.7313 103.394 24.2518C103.515 24.7629 103.575 25.3949 103.575 26.1477C103.575 26.8633 103.501 27.5045 103.352 28.0714C103.213 28.6383 102.925 29.117 102.488 29.5073C102.051 29.8976 101.433 30.195 100.634 30.3995C99.8347 30.6132 98.7799 30.7201 97.4695 30.7201C96.7446 30.7201 96.0615 30.669 95.4203 30.5668C94.779 30.4738 94.2167 30.367 93.7335 30.2461C93.1666 30.1067 92.6415 29.9487 92.1582 29.7722V27.4581Z" fill="#9D9FA2"/>
<path d="M77.7168 27.4581C78.1257 27.551 78.5811 27.6346 79.083 27.709C79.5105 27.774 80.0123 27.8298 80.5885 27.8763C81.174 27.9227 81.8153 27.946 82.5123 27.946C83.2744 27.946 83.8785 27.9181 84.3246 27.8623C84.7707 27.8066 85.1052 27.7136 85.3283 27.5835C85.5606 27.4441 85.7093 27.2582 85.7744 27.0259C85.8394 26.7936 85.8719 26.5008 85.8719 26.1477C85.8719 25.9618 85.858 25.7945 85.8301 25.6458C85.8115 25.4878 85.7558 25.3484 85.6628 25.2276C85.5792 25.0975 85.4491 24.9906 85.2725 24.907C85.1052 24.814 84.8775 24.7443 84.5894 24.6979L81.5086 24.1263C80.8023 24.0055 80.2075 23.8428 79.7242 23.6384C79.241 23.4339 78.8506 23.1644 78.5532 22.8298C78.2651 22.486 78.056 22.0678 77.9259 21.5752C77.8051 21.0733 77.7447 20.4646 77.7447 19.749C77.7447 18.2063 78.2558 17.0585 79.2781 16.3057C80.3097 15.5436 81.7781 15.1626 83.6833 15.1626C84.3524 15.1626 84.9658 15.2044 85.5234 15.2881C86.0903 15.3624 86.5829 15.4507 87.0011 15.5529C87.4844 15.6645 87.9258 15.7899 88.3255 15.9293V18.2992C87.8794 18.2248 87.4147 18.1598 86.9314 18.104C86.5132 18.0576 86.0439 18.0111 85.5234 17.9646C85.0123 17.9182 84.4918 17.8949 83.9621 17.8949C83.358 17.8949 82.8562 17.9228 82.4565 17.9786C82.0569 18.025 81.7409 18.1087 81.5086 18.2295C81.2763 18.3503 81.1136 18.5083 81.0207 18.7035C80.9277 18.8893 80.8813 19.1263 80.8813 19.4144C80.8813 19.6375 80.8999 19.8373 80.937 20.0139C80.9742 20.1904 81.0532 20.3484 81.174 20.4878C81.2948 20.6272 81.4621 20.7481 81.6759 20.8503C81.8896 20.9525 82.1777 21.0362 82.5402 21.1012L85.7325 21.7007C86.3552 21.8215 86.8803 21.9795 87.3078 22.1746C87.7446 22.3698 88.0978 22.6347 88.3673 22.9692C88.6368 23.3038 88.832 23.7313 88.9528 24.2518C89.0736 24.7629 89.134 25.3949 89.134 26.1477C89.134 26.8633 89.0597 27.5045 88.911 28.0714C88.7716 28.6383 88.4835 29.117 88.0467 29.5073C87.6099 29.8976 86.9918 30.195 86.1926 30.3995C85.3933 30.6132 84.3385 30.7201 83.0281 30.7201C82.3032 30.7201 81.6201 30.669 80.9789 30.5668C80.3376 30.4738 79.7753 30.367 79.2921 30.2461C78.7252 30.1067 78.2001 29.9487 77.7168 29.7722V27.4581Z" fill="#9D9FA2"/>
<path d="M61.2246 26.1196C61.2246 25.2832 61.3454 24.5769 61.5871 24.0007C61.838 23.4245 62.1726 22.9598 62.5908 22.6066C63.0183 22.2535 63.5155 21.9979 64.0824 21.8399C64.6586 21.6819 65.2766 21.6029 65.9365 21.6029C66.6056 21.6029 67.2097 21.6401 67.7487 21.7145C68.2971 21.7888 68.771 21.8724 69.1707 21.9654C69.626 22.0676 70.0396 22.1838 70.4114 22.3139V20.9477C70.4114 20.6039 70.3974 20.3158 70.3695 20.0834C70.3509 19.8418 70.3138 19.6327 70.258 19.4561C70.2022 19.2795 70.1233 19.1308 70.021 19.01C69.9281 18.8892 69.8119 18.773 69.6725 18.6615C69.3751 18.4477 68.9662 18.2944 68.4457 18.2015C67.9253 18.1085 67.2469 18.0621 66.4104 18.0621C65.8807 18.0621 65.3649 18.0806 64.8631 18.1178C64.3705 18.1457 63.9291 18.1829 63.5387 18.2293C63.0833 18.2758 62.6512 18.3269 62.2423 18.3827V16.0686C62.614 15.9199 63.074 15.7851 63.6224 15.6643C64.087 15.5621 64.6679 15.4691 65.3649 15.3855C66.0619 15.2926 66.8891 15.2461 67.8463 15.2461C68.4876 15.2461 69.0545 15.274 69.547 15.3297C70.0489 15.3762 70.4903 15.4598 70.8714 15.5807C71.2524 15.7015 71.587 15.8595 71.8751 16.0546C72.1725 16.2498 72.4374 16.4914 72.6697 16.7795C72.8649 17.0212 73.0275 17.2767 73.1576 17.5463C73.2877 17.8158 73.3946 18.1318 73.4782 18.4942C73.5619 18.8567 73.6177 19.2749 73.6455 19.7489C73.6827 20.2135 73.7013 20.7572 73.7013 21.3799V30.2878H70.8993L70.6483 29.2005C70.2394 29.4886 69.7887 29.7441 69.2961 29.9672C68.8686 30.1531 68.3668 30.325 67.7906 30.483C67.2236 30.641 66.5963 30.72 65.9086 30.72C65.0722 30.72 64.3566 30.6363 63.7618 30.469C63.167 30.3018 62.6791 30.0369 62.298 29.6744C61.9263 29.312 61.6521 28.838 61.4755 28.2525C61.3083 27.667 61.2246 26.9561 61.2246 26.1196ZM64.6121 26.1196C64.6121 26.5285 64.6632 26.8538 64.7655 27.0955C64.8677 27.3371 65.0164 27.523 65.2116 27.6531C65.4067 27.7739 65.6437 27.8529 65.9225 27.8901C66.2106 27.9272 66.5359 27.9458 66.8984 27.9458C67.3723 27.9458 67.8184 27.904 68.2366 27.8204C68.6641 27.7274 69.0405 27.6298 69.3658 27.5276C69.7376 27.4068 70.0861 27.2674 70.4114 27.1094V24.5583C70.114 24.5025 69.7933 24.4514 69.4495 24.405C69.1521 24.3585 68.8128 24.3213 68.4318 24.2934C68.0601 24.2563 67.6651 24.2377 67.2469 24.2377C66.7822 24.2377 66.3826 24.2609 66.048 24.3074C65.7227 24.3445 65.4532 24.4328 65.2395 24.5722C65.0257 24.7024 64.8677 24.8929 64.7655 25.1438C64.6632 25.3854 64.6121 25.7107 64.6121 26.1196Z" fill="#9D9FA2"/>
<path d="M37.8184 10.395H43.6176L47.2979 22.3838H47.4094L51.2151 10.395H56.9167V30.288H53.585V13.5037H53.5013L53.125 14.7584C53.0227 15.1115 52.9112 15.4833 52.7904 15.8736C52.6696 16.2546 52.5627 16.5846 52.4698 16.8634L49.9047 24.8931H44.9001L42.2793 16.8076C42.1864 16.5288 42.0795 16.2035 41.9587 15.8318C41.8378 15.4507 41.7263 15.0883 41.6241 14.7444C41.5033 14.3448 41.3778 13.9312 41.2477 13.5037H41.1641V30.288H37.8184V10.395Z" fill="#9D9FA2"/>
</g>
<defs>
<clipPath id="clip0_172_3576">
<rect width="131.313" height="40" fill="white" transform="translate(0.1875)"/>
</clipPath>
</defs>
</svg>
