<svg width="92" height="40" viewBox="0 0 92 40" fill="none" xmlns="http://www.w3.org/2000/svg">
<g clip-path="url(#clip0_172_3610)">
<path d="M83.9728 18.9414C84.5158 17.9389 85.017 17.0617 85.4765 16.3934C85.8524 15.8504 86.1866 15.7669 86.479 16.1428C87.1055 16.8946 87.4397 18.6907 86.4372 20.7792C85.5183 22.6589 83.4298 25.7916 82.4273 28.0054C81.3831 30.3445 81.3413 32.1406 82.7615 32.057C84.474 31.9735 86.7713 29.1331 88.2333 26.251C88.4421 25.8751 88.7345 25.8333 88.9016 26.2093C89.0687 26.5852 89.0687 27.6294 88.5257 28.799C87.4396 31.0963 84.8082 33.3936 82.5108 33.2683C80.2553 33.143 79.0857 31.8064 79.0857 29.8432C77.7491 31.5558 75.8695 33.1013 73.8645 33.1013C69.9799 33.1013 69.1863 27.7965 72.6532 22.7424C76.0365 17.8136 79.3363 15.9339 81.4248 15.9339C83.2209 15.9339 84.0563 17.3123 83.9728 18.9414ZM80.3388 25.4156C82.9703 20.821 83.3462 18.2313 82.1349 18.106C80.7983 17.9807 77.7491 20.6957 75.4518 24.4132C73.238 28.0054 72.695 31.6811 74.324 31.7229C76.0365 31.7646 78.2086 29.0914 80.3388 25.4156Z" fill="#9D9FA2"/>
<path d="M59.329 29.1335C57.8671 31.0967 55.6533 33.2269 53.3142 33.0599C50.3485 32.851 50.265 29.7601 51.1839 27.0033C52.1029 24.2465 54.2331 20.153 56.9481 16.352C57.2823 15.8925 57.7 15.9343 58.0341 16.3102C58.9531 17.6886 58.7442 19.5683 57.2405 21.9491C55.695 24.4135 54.8597 26.0843 53.9825 28.0893C53.1053 30.136 53.2306 31.6397 54.1913 31.7232C55.8204 31.8485 58.1177 28.9247 60.3732 25.2907C63.0047 21.0302 64.2161 18.1481 65.5527 16.352C65.9704 15.7672 66.2628 15.6837 66.5969 16.1014C67.2235 16.8532 67.5576 18.6911 66.5551 20.7796C65.6362 22.6592 63.5477 25.7919 62.587 27.9222C61.501 30.3031 61.6681 32.0574 63.1718 31.9739C64.9261 31.8903 67.0564 29.1335 68.6854 26.2096C68.8943 25.8337 69.2702 25.7919 69.4373 26.1679C69.6043 26.502 69.6461 27.6298 69.0613 28.7994C67.85 31.1385 65.2603 33.2687 62.7959 33.2687C60.0809 33.2687 58.9948 31.5562 59.329 29.1335Z" fill="#9D9FA2"/>
<path d="M39.5075 20.2362C41.3871 18.2313 44.2275 15.9339 45.6059 16.1428C46.9843 16.3516 48.2791 18.3983 47.2349 20.5704C46.3577 22.4082 44.311 25.4992 43.3503 27.6712C42.2643 30.0938 42.5149 32.057 44.0186 31.9735C45.7312 31.8899 47.7779 29.1331 49.3651 26.2093C49.574 25.8333 49.8664 25.8333 50.0752 26.1675C50.3676 26.627 50.2841 27.5877 49.6993 28.799C48.5715 31.1381 45.94 33.2683 43.5174 33.2683C39.967 33.2683 39.1316 30.6786 40.3429 27.0446C41.7213 22.9512 45.397 18.5236 44.6452 18.1895C44.2275 18.0224 41.8048 19.192 39.1316 22.1158C36.6672 24.7891 34.8293 28.799 33.0332 32.7253C32.8661 33.1012 32.6155 33.2683 32.2396 32.8924C31.4042 32.057 31.1536 30.6786 31.8219 28.5901C32.6573 25.9586 35.8736 20.1527 38.505 16.2681C38.7974 15.8086 39.1316 15.8504 39.3822 16.2681C40.0087 17.3123 39.967 18.7325 39.5075 20.2362Z" fill="#9D9FA2"/>
<path d="M31.703 13.3444C32.246 14.4304 31.9536 15.5581 31.4106 16.1429C30.8676 16.7277 29.6981 16.6024 29.0715 15.5164C28.4032 14.3886 28.6121 13.1355 29.2804 12.4254C29.9487 11.7153 31.16 12.2166 31.703 13.3444ZM24.8946 33.1432C21.7201 33.1432 20.9265 30.4699 22.096 27.0448C23.1402 23.9956 25.897 19.0668 27.4425 16.8948C27.8184 16.3935 28.1108 16.2682 28.445 16.6442C29.0715 17.3125 29.4057 19.1086 28.4032 21.197C27.5261 23.0349 25.7717 25.8752 24.8946 27.9637C23.8921 30.3864 23.9756 32.0154 25.3123 31.9318C27.1919 31.8483 29.4892 29.0915 30.7423 26.2094C30.9512 25.8335 31.2436 25.8752 31.4106 26.2094C31.7448 26.8777 31.6195 27.7549 31.1182 28.7991C29.8652 31.3888 27.2337 33.1432 24.8946 33.1432Z" fill="#9D9FA2"/>
<path d="M9.03704 23.745C7.57511 26.5436 6.11317 29.6763 4.73477 32.8926C4.56769 33.2685 4.31708 33.352 4.06646 33.0179C3.43991 32.1407 3.10576 30.9294 3.85761 28.4232C4.90185 24.8728 12.0862 10.7129 14.6342 7.16248C15.0101 6.66124 15.3025 6.70301 15.6366 7.24602C16.1796 8.20672 16.3885 10.2117 14.6759 13.3444C13.5899 15.3076 12.2115 17.772 10.7078 20.5705C16.1796 16.4771 22.0274 11.2559 25.9955 6.95363C26.2879 6.61948 26.6221 6.66124 26.7891 7.03717C27.0398 7.9561 26.998 9.37627 25.4943 11.423C23.6146 13.9709 17.934 19.0668 12.2951 23.0349C13.6317 25.1652 14.7595 27.0866 15.2607 28.2561C16.2632 30.637 15.8873 32.0989 15.2607 32.8926C15.0101 33.185 14.7177 33.185 14.5089 32.809C12.9216 29.7181 11.0838 26.7107 9.03704 23.745Z" fill="#9D9FA2"/>
</g>
<defs>
<clipPath id="clip0_172_3610">
<rect width="91.5744" height="40" fill="white" transform="translate(0.425781)"/>
</clipPath>
</defs>
</svg>
