<svg width="98" height="40" viewBox="0 0 98 40" fill="none" xmlns="http://www.w3.org/2000/svg">
<g clip-path="url(#clip0_172_3601)">
<path d="M24.0878 20.0344C27.2686 18.0723 29.4295 14.6062 29.5764 10.6301C29.5851 10.3881 29.3863 10.1806 29.1443 10.1806H26.8105C26.6203 10.1806 26.4647 10.025 26.4647 9.83489V7.43196C26.4647 7.18994 26.2659 6.99114 26.0153 6.99978C22.0479 7.15537 18.5818 9.30763 16.611 12.4885C14.6489 9.31627 11.1828 7.15537 7.20676 6.99978C6.96474 6.99114 6.7573 7.18994 6.7573 7.43196V9.76574C6.7573 9.9559 6.60171 10.1115 6.41155 10.1115H4.00862C3.7666 10.1115 3.5678 10.3103 3.57644 10.561C3.73203 14.5284 5.88429 17.9945 9.06514 19.9652C5.89293 21.936 3.73203 25.3934 3.57644 29.3695C3.5678 29.6115 3.7666 29.8189 4.00862 29.8189H6.3424C6.53256 29.8189 6.68815 29.9745 6.68815 30.1647V32.5763C6.68815 32.8183 6.88695 33.0171 7.13761 33.0084C11.105 32.8528 14.5711 30.7006 16.5419 27.5197C18.5126 30.7006 21.9787 32.8615 25.9461 33.0084C26.1882 33.0171 26.3956 32.8183 26.3956 32.5763V30.2425C26.3956 30.0523 26.5512 29.8967 26.7413 29.8967H29.1529C29.3949 29.8967 29.5937 29.6979 29.5851 29.4473C29.4295 25.4712 27.2686 22.0051 24.0878 20.0344ZM16.5764 18.5736C17.363 18.5736 18.0026 19.2132 18.0026 19.9998C18.0026 20.7864 17.363 21.426 16.5764 21.426C15.7899 21.426 15.1502 20.7864 15.1502 19.9998C15.1502 19.2132 15.7899 18.5736 16.5764 18.5736ZM26.1017 10.8548C25.7819 14.779 22.6616 17.9253 18.746 18.2797C18.5385 18.297 18.357 18.1241 18.3743 17.908C18.6941 13.9838 21.8145 10.8376 25.73 10.4832C25.9375 10.4659 26.119 10.6387 26.1017 10.8548ZM14.4847 18.2019C10.5605 17.8821 7.41421 14.7618 7.05982 10.8462C7.04253 10.6387 7.21541 10.4572 7.4315 10.4745C11.3557 10.7943 14.502 13.9147 14.8564 17.8302C14.8737 18.0463 14.6921 18.2278 14.4847 18.2019ZM7.05118 29.1447C7.37099 25.2205 10.4913 22.0743 14.4069 21.7199C14.6143 21.7026 14.7959 21.8755 14.7786 22.0915C14.4588 26.0157 11.3384 29.162 7.42285 29.5164C7.21541 29.5337 7.03389 29.3608 7.05118 29.1447ZM18.6768 21.7977C22.601 22.1175 25.7473 25.2378 26.1017 29.1534C26.119 29.3608 25.9461 29.5423 25.73 29.5251C21.8058 29.2052 18.6596 26.0849 18.3052 22.1693C18.2792 21.9532 18.4608 21.7804 18.6768 21.7977Z" fill="#9D9FA2"/>
</g>
<path d="M81.8622 27.2854C80.5647 26.0878 79.916 24.3246 79.916 21.9958C79.916 19.6587 80.5647 17.8955 81.8622 16.7062C83.1597 15.5085 85.0227 14.9097 87.4513 14.9097C89.8882 14.9097 91.7553 15.5085 93.0528 16.7062C94.3503 17.8955 94.999 19.6587 94.999 21.9958C94.999 24.3246 94.3503 26.0878 93.0528 27.2854C91.7553 28.4831 89.8882 29.0819 87.4513 29.0819C85.0227 29.0819 83.1597 28.4831 81.8622 27.2854ZM85.0185 18.7521C84.5029 19.4258 84.245 20.5029 84.245 21.9833C84.245 23.4638 84.5029 24.545 85.0185 25.227C85.5342 25.909 86.3451 26.25 87.4513 26.25C88.5658 26.25 89.3808 25.909 89.8965 25.227C90.4205 24.545 90.6824 23.4638 90.6824 21.9833C90.6824 20.5029 90.4205 19.4258 89.8965 18.7521C89.3808 18.0785 88.5658 17.7416 87.4513 17.7416C86.3451 17.7416 85.5342 18.0785 85.0185 18.7521Z" fill="#9D9FA2"/>
<path d="M73.3047 28.0714V11.7159C73.3047 11.4913 73.3754 11.3083 73.5168 11.1669C73.6665 11.0172 73.8495 10.9424 74.0657 10.9424H76.8602C77.0765 10.9424 77.2553 11.0172 77.3967 11.1669C77.5464 11.3083 77.6212 11.4913 77.6212 11.7159V28.0714C77.6212 28.2876 77.5464 28.4706 77.3967 28.6203C77.2553 28.7617 77.0765 28.8324 76.8602 28.8324H74.0657C73.8495 28.8324 73.6665 28.7617 73.5168 28.6203C73.3754 28.4706 73.3047 28.2876 73.3047 28.0714Z" fill="#9D9FA2"/>
<path d="M57.5101 27.9342C56.4122 27.169 55.8633 26.0878 55.8633 24.6905C55.8633 23.2933 56.4122 22.2204 57.5101 21.4718C58.6162 20.7233 60.0384 20.349 61.7767 20.349H65.9061C65.9061 19.3759 65.7024 18.6981 65.2948 18.3155C64.8873 17.9329 64.172 17.7416 63.149 17.7416C62.1343 17.7416 61.4191 17.9953 61.0032 18.5026C60.5957 19.0017 60.0925 19.2512 59.4937 19.2512H57.6348C57.4103 19.2512 57.2231 19.1805 57.0734 19.0391C56.932 18.8894 56.8613 18.7064 56.8613 18.4902C56.8613 16.1032 59.1277 14.9097 63.6605 14.9097C65.64 14.9097 67.2285 15.3546 68.4262 16.2446C69.6239 17.1262 70.2227 18.4943 70.2227 20.349V28.0714C70.2227 28.296 70.152 28.4789 70.0106 28.6203C69.8692 28.7617 69.6862 28.8324 69.4617 28.8324H67.0539C66.8293 28.8324 66.6463 28.7617 66.505 28.6203C66.3636 28.4706 66.2929 28.2877 66.2929 28.0714V27.6847C64.9788 28.6245 63.4609 29.0903 61.7393 29.0819C60.026 29.0819 58.6162 28.6993 57.5101 27.9342ZM62.0761 23.181C61.4939 23.181 61.0323 23.3224 60.6913 23.6052C60.3586 23.8879 60.1923 24.2539 60.1923 24.703C60.1923 25.1521 60.367 25.5222 60.7163 25.8133C61.0656 26.1044 61.5605 26.25 62.2009 26.25C63.4817 26.25 64.7168 25.8757 65.9061 25.1272V23.181H62.0761Z" fill="#9D9FA2"/>
<path d="M55.0899 28.2835C55.0899 28.6494 54.8737 28.8324 54.4412 28.8324H51.5843C51.2599 28.8324 50.9106 28.7201 50.5364 28.4956C50.1621 28.2627 49.871 27.9841 49.6631 27.6597L47.4674 24.179C46.9434 23.3307 46.4152 22.6944 45.883 22.2703C45.3507 21.8378 44.7103 21.6215 43.9617 21.6215H41.2795V27.6847C41.2795 28.009 41.163 28.2835 40.9302 28.5081C40.7056 28.7243 40.4311 28.8324 40.1068 28.8324H37.7614C37.437 28.8324 37.1584 28.716 36.9255 28.4831C36.6926 28.2419 36.5762 27.9591 36.5762 27.6348V12.1276C36.5762 11.8032 36.6926 11.5205 36.9255 11.2793C37.1584 11.0381 37.437 10.9175 37.7614 10.9175H40.1068C40.4311 10.9175 40.7056 11.0381 40.9302 11.2793C41.163 11.5205 41.2795 11.8032 41.2795 12.1276V18.1034H43.9617C44.6936 18.1034 45.334 17.9038 45.883 17.5046C46.4402 17.1054 46.9683 16.4608 47.4674 15.5709L49.4011 12.1276C49.8419 11.3292 50.4407 10.9258 51.1976 10.9175H54.0794C54.4786 10.9175 54.6782 11.0921 54.6782 11.4415C54.6782 11.6327 54.6076 11.8615 54.4662 12.1276L51.759 17.0305C51.3681 17.7458 50.9273 18.3363 50.4365 18.8021C49.9542 19.2678 49.3221 19.5963 48.5403 19.7876C49.0892 19.9041 49.6506 20.2492 50.2245 20.8231C50.8067 21.397 51.3182 22.0208 51.759 22.6944L54.8779 27.6597C55.0192 27.9009 55.0899 28.1088 55.0899 28.2835Z" fill="#9D9FA2"/>
<defs>
<clipPath id="clip0_172_3601">
<rect width="26" height="26" fill="white" transform="translate(3.57617 7)"/>
</clipPath>
</defs>
</svg>
