<svg width="114" height="40" viewBox="0 0 114 40" fill="none" xmlns="http://www.w3.org/2000/svg">
<g clip-path="url(#clip0_172_3618)">
<g clip-path="url(#clip1_172_3618)">
<path fill-rule="evenodd" clip-rule="evenodd" d="M12.6064 7.58691C11.2065 7.58691 9.86397 8.14304 8.87411 9.13294L4.09766 13.9096V16.096C4.09766 17.6407 4.76115 19.0304 5.81869 19.9957C4.76115 20.961 4.09766 22.3507 4.09766 23.8954V26.0818L8.87411 30.8585C9.86397 31.8484 11.2065 32.4045 12.6064 32.4045C14.151 32.4045 15.5407 31.741 16.5059 30.6834C17.4712 31.741 18.8608 32.4045 20.4055 32.4045C21.8054 32.4045 23.1479 31.8484 24.1378 30.8585L28.9142 26.0818V23.8954C28.9142 22.3507 28.2507 20.961 27.1932 19.9957C28.2507 19.0304 28.9142 17.6407 28.9142 16.096V13.9096L24.1378 9.13294C23.1479 8.14304 21.8054 7.58691 20.4055 7.58691C18.8608 7.58691 17.4712 8.25043 16.5059 9.30802C15.5407 8.25043 14.151 7.58691 12.6064 7.58691ZM20.0788 19.9957C20.0193 19.9414 19.9609 19.8856 19.9037 19.8284L16.5059 16.4305L13.1082 19.8284C13.051 19.8856 12.9926 19.9414 12.9331 19.9957C12.9926 20.05 13.051 20.1058 13.1082 20.163L16.5059 23.5609L19.9037 20.163C19.9609 20.1058 20.0193 20.05 20.0788 19.9957ZM17.8846 26.0818V27.126C17.8846 28.5183 19.0133 29.647 20.4055 29.647C21.074 29.647 21.7152 29.3814 22.188 28.9086L26.1568 24.9396V23.8954C26.1568 22.5031 25.0282 21.3744 23.636 21.3744C22.9674 21.3744 22.3262 21.64 21.8535 22.1128L17.8846 26.0818ZM15.1273 26.0818L11.1584 22.1128C10.6856 21.64 10.0445 21.3744 9.3759 21.3744C7.98368 21.3744 6.85505 22.5031 6.85505 23.8954V24.9396L10.8239 28.9086C11.2966 29.3814 11.9378 29.647 12.6064 29.647C13.9986 29.647 15.1273 28.5183 15.1273 27.126V26.0818ZM15.1273 12.8654V13.9096L11.1584 17.8786C10.6856 18.3513 10.0445 18.617 9.3759 18.617C7.98368 18.617 6.85505 17.4882 6.85505 16.096V15.0518L10.8239 11.0828C11.2966 10.61 11.9378 10.3444 12.6064 10.3444C13.9986 10.3444 15.1273 11.4731 15.1273 12.8654ZM21.8535 17.8786L17.8846 13.9096V12.8654C17.8846 11.4731 19.0133 10.3444 20.4055 10.3444C21.074 10.3444 21.7152 10.61 22.188 11.0828L26.1568 15.0518V16.096C26.1568 17.4882 25.0282 18.617 23.636 18.617C22.9674 18.617 22.3262 18.3513 21.8535 17.8786Z" fill="#9D9FA2"/>
</g>
<path d="M101.71 30.1461C99.2422 30.1461 97.3505 29.5606 96.0353 28.3896C94.7201 27.2185 94.0625 25.507 94.0625 23.2549V17.4718C94.0625 15.2197 94.7201 13.5082 96.0353 12.3371C97.3505 11.1661 99.2422 10.5806 101.71 10.5806C104.179 10.5806 106.061 11.1661 107.358 12.3371C108.674 13.5082 109.331 15.2197 109.331 17.4718V23.2549C109.331 25.507 108.674 27.2185 107.358 28.3896C106.061 29.5606 104.179 30.1461 101.71 30.1461ZM101.71 27.6329C103.134 27.6329 104.224 27.2635 104.98 26.5249C105.755 25.7682 106.142 24.6782 106.142 23.2549V17.4718C106.142 16.0485 105.755 14.9675 104.98 14.2288C104.224 13.4722 103.134 13.0938 101.71 13.0938C100.269 13.0938 99.1611 13.4722 98.3864 14.2288C97.6297 14.9675 97.2514 16.0485 97.2514 17.4718V23.2549C97.2514 24.6782 97.6297 25.7682 98.3864 26.5249C99.1611 27.2635 100.269 27.6329 101.71 27.6329Z" fill="#9D9FA2"/>
<path d="M89.437 10.9048V25.9032C89.437 27.2004 89.1668 28.1823 88.6263 28.8489C88.1038 29.4975 87.266 29.8218 86.113 29.8218H83.87L77.195 15.9043V29.8218H74.1953V10.9048H77.8436L85.5455 27.0923H85.6806C85.9689 27.0923 86.1671 26.9752 86.2752 26.741C86.3833 26.4888 86.4373 26.0564 86.4373 25.4438V10.9048H89.437Z" fill="#9D9FA2"/>
<path d="M65.4839 24.8494H57.7279L56.2416 29.8218H53.0527L57.782 14.4991C58.0883 13.4902 58.4035 12.7065 58.7278 12.148C59.0701 11.5895 59.4665 11.1931 59.9169 10.9589C60.3673 10.7067 60.9348 10.5806 61.6194 10.5806C62.286 10.5806 62.8445 10.7067 63.2949 10.9589C63.7453 11.1931 64.1417 11.5895 64.484 12.148C64.8263 12.7065 65.1506 13.4902 65.4569 14.4991L70.1591 29.8218H66.9702L65.4839 24.8494ZM64.7813 22.4712L62.4302 14.5531C62.3221 14.1928 62.205 13.9316 62.0788 13.7694C61.9707 13.6073 61.8176 13.5262 61.6194 13.5262C61.4212 13.5262 61.2591 13.6073 61.133 13.7694C61.0069 13.9316 60.8898 14.1928 60.7817 14.5531L58.4306 22.4712H64.7813Z" fill="#9D9FA2"/>
<path d="M44.4658 13.418H38.6016V10.9048H53.4919V13.418H47.6547V29.8218H44.4658V13.418Z" fill="#9D9FA2"/>
</g>
<defs>
<clipPath id="clip0_172_3618">
<rect width="113.266" height="40" fill="white" transform="translate(0.734375)"/>
</clipPath>
<clipPath id="clip1_172_3618">
<rect width="24.8166" height="25.438" fill="white" transform="translate(4.09766 7.27002)"/>
</clipPath>
</defs>
</svg>
