<svg width="121" height="40" viewBox="0 0 121 40" fill="none" xmlns="http://www.w3.org/2000/svg">
<g clip-path="url(#clip0_172_3589)">
<g clip-path="url(#clip1_172_3589)">
<path d="M16.9134 33.3341H20.9616L19.7831 32.1556C19.4705 31.843 19.0466 31.6674 18.6046 31.6674H16.9134C10.4701 31.6674 5.24674 26.4442 5.24674 20.001C5.24674 13.5578 10.4701 8.33461 16.9134 8.3346H30.2467C36.6901 8.3346 41.9134 13.5578 41.9134 20.001C41.9134 26.4442 36.6901 31.6674 30.2467 31.6674H25.259C24.5959 31.6674 23.9601 31.404 23.4912 30.9352L22.1105 29.5545C21.3291 28.7732 20.2693 28.3342 19.1642 28.3342H16.9134C12.311 28.3342 8.58008 24.6033 8.58008 20.001C8.58008 15.3987 12.311 11.6679 16.9134 11.6679H30.2467C34.8491 11.6679 38.5801 15.3987 38.5801 20.001C38.5801 24.6033 34.8491 28.3342 30.2467 28.3342H27.0441C26.3811 28.3342 25.7452 28.0708 25.2763 27.602L23.8956 26.2213C23.1142 25.4399 22.0544 25.0009 20.9493 25.0009H16.9134C14.152 25.0009 11.9134 22.7624 11.9134 20.001C11.9134 17.2397 14.152 15.0011 16.9134 15.0011H30.2467C33.0081 15.0011 35.2467 17.2397 35.2467 20.001C35.2467 22.7287 33.0624 24.9462 30.3475 24.9999L30.347 25.0009H29.1275C28.4644 25.0009 27.8285 24.7375 27.3597 24.2687L25.9789 22.888C25.3378 22.2468 24.5092 21.8362 23.6219 21.7095L23.5801 21.6676H16.9134C15.9929 21.6676 15.2467 20.9215 15.2467 20.001C15.2467 19.0806 15.9929 18.3344 16.9134 18.3344H30.2467C31.1672 18.3344 31.9134 19.0806 31.9134 20.001C31.9134 20.9215 31.1672 21.6676 30.2467 21.6676H26.9134L28.0919 22.8462C28.4045 23.1587 28.8284 23.3343 29.2704 23.3343H30.2467C32.0877 23.3343 33.5801 21.8419 33.5801 20.001C33.5801 18.1601 32.0877 16.6678 30.2467 16.6678H16.9134C15.0725 16.6678 13.5801 18.1601 13.5801 20.001C13.5801 21.8419 15.0725 23.3343 16.9134 23.3343H23.0327C23.6957 23.3343 24.3316 23.5977 24.8005 24.0665L26.1812 25.4472C26.9626 26.2285 28.0224 26.6675 29.1275 26.6675H30.6634V26.6547C34.1512 26.4397 36.9134 23.5429 36.9134 20.001C36.9134 16.3192 33.9286 13.3345 30.2467 13.3345H16.9134C13.2315 13.3345 10.2467 16.3192 10.2467 20.001C10.2467 23.6829 13.2315 26.6675 16.9134 26.6675H20.9493C21.6124 26.6675 22.2483 26.9309 22.7171 27.3997L24.0979 28.7804C24.8793 29.5618 25.9391 30.0008 27.0441 30.0008H30.2467C35.7696 30.0008 40.2467 25.5238 40.2467 20.001C40.2467 14.4783 35.7696 10.0012 30.2467 10.0012H16.9134C11.3905 10.0012 6.91341 14.4783 6.91341 20.001C6.91341 25.5238 11.3905 30.0008 16.9134 30.0008H19.1642C19.8273 30.0008 20.4631 30.2642 20.932 30.733L22.3127 32.1137C23.0941 32.8951 24.1539 33.3341 25.259 33.3341H30.2467C37.6105 33.3341 43.5801 27.3647 43.5801 20.001C43.5801 12.6374 37.6105 6.66797 30.2467 6.66797L16.9134 6.66797C9.54961 6.66797 3.58008 12.6374 3.58008 20.001C3.58008 27.3647 9.54962 33.3341 16.9134 33.3341Z" fill="#9D9FA2"/>
</g>
<path d="M115.071 30.7902C113.851 30.7902 112.925 30.4957 112.294 29.9068C111.663 29.2968 111.348 28.2977 111.348 26.9095V9.20996H114.787V26.594C114.787 27.1829 114.892 27.5826 115.102 27.7929C115.312 28.0032 115.628 28.1084 116.049 28.1084C116.553 28.1084 117.037 28.0453 117.5 27.9191V30.4116C117.1 30.5588 116.711 30.6534 116.333 30.6955C115.975 30.7586 115.554 30.7902 115.071 30.7902Z" fill="#9D9FA2"/>
<path d="M108.03 30.7902C106.81 30.7902 105.884 30.4957 105.253 29.9068C104.622 29.2968 104.307 28.2977 104.307 26.9095V9.20996H107.746V26.594C107.746 27.1829 107.851 27.5826 108.061 27.7929C108.271 28.0032 108.587 28.1084 109.008 28.1084C109.512 28.1084 109.996 28.0453 110.459 27.9191V30.4116C110.059 30.5588 109.67 30.6534 109.292 30.6955C108.934 30.7586 108.513 30.7902 108.03 30.7902Z" fill="#9D9FA2"/>
<path d="M92.7223 30.7903C91.7758 30.7903 90.8924 30.622 90.0721 30.2855C89.2728 29.949 88.6313 29.4442 88.1475 28.7711C87.6638 28.077 87.4219 27.2251 87.4219 26.2155C87.4219 24.7853 87.9056 23.639 88.8732 22.7766C89.8617 21.8932 91.3761 21.4515 93.4164 21.4515H98.212V20.7889C98.212 20.0738 98.0963 19.5059 97.8649 19.0852C97.6546 18.6646 97.255 18.3596 96.666 18.1703C96.0981 17.981 95.2568 17.8863 94.142 17.8863C92.3752 17.8863 90.7241 18.1493 89.1887 18.6751V16.1195C89.8617 15.8461 90.682 15.6253 91.6496 15.457C92.6171 15.2887 93.6583 15.2046 94.773 15.2046C96.9605 15.2046 98.6221 15.6463 99.7579 16.5297C100.915 17.4131 101.493 18.8539 101.493 20.852V30.4748H98.559L98.3382 28.9604C97.7282 29.5493 96.971 30.0015 96.0666 30.317C95.1832 30.6325 94.0684 30.7903 92.7223 30.7903ZM93.6372 28.3294C94.6679 28.3294 95.5618 28.1611 96.319 27.8246C97.0972 27.467 97.7282 26.9938 98.212 26.4048V23.7862H93.4795C92.4699 23.7862 91.7337 23.986 91.271 24.3856C90.8293 24.7642 90.6084 25.3532 90.6084 26.1524C90.6084 26.9307 90.8713 27.4881 91.3972 27.8246C91.923 28.1611 92.6697 28.3294 93.6372 28.3294Z" fill="#9D9FA2"/>
<path d="M83.4237 30.7903C81.8252 30.7903 80.6263 30.3697 79.827 29.5283C79.0488 28.666 78.6597 27.4986 78.6597 26.0263V18.2019H76.4512V15.5201H78.6597V12.0812L82.0671 11.04V15.5201H86.0424L85.8215 18.2019H82.0671V25.837C82.0671 26.6994 82.2669 27.3093 82.6665 27.6669C83.0662 28.0034 83.7182 28.1717 84.6226 28.1717C85.1905 28.1717 85.79 28.0665 86.421 27.8562V30.2855C85.6007 30.6221 84.6016 30.7903 83.4237 30.7903Z" fill="#9D9FA2"/>
<path d="M74.3948 30.7902C73.1748 30.7902 72.2494 30.4957 71.6184 29.9068C70.9874 29.2968 70.6719 28.2977 70.6719 26.9095V9.20996H74.1108V26.594C74.1108 27.1829 74.216 27.5826 74.4263 27.7929C74.6367 28.0032 74.9522 28.1084 75.3728 28.1084C75.8776 28.1084 76.3614 28.0453 76.8241 27.9191V30.4116C76.4245 30.5588 76.0354 30.6534 75.6568 30.6955C75.2992 30.7586 74.8785 30.7902 74.3948 30.7902Z" fill="#9D9FA2"/>
<path d="M50.584 30.4745L58.3453 10.1562H62.1944L69.8926 30.4745H66.359L64.3398 25.2372H56.1683L54.1491 30.4745H50.584ZM56.7047 22.587H63.7719L60.2383 13.2797L56.7047 22.587Z" fill="#9D9FA2"/>
</g>
<defs>
<clipPath id="clip0_172_3589">
<rect width="119.916" height="40" fill="white" transform="translate(0.583984)"/>
</clipPath>
<clipPath id="clip1_172_3589">
<rect width="40" height="26.6661" fill="white" transform="translate(3.58398 6.66699)"/>
</clipPath>
</defs>
</svg>
